<?xml version="1.0" encoding="utf-8"?>
<!-- Generator: Adobe Illustrator 16.0.0, SVG Export Plug-In . SVG Version: 6.00 Build 0)  -->
<!DOCTYPE svg PUBLIC "-//W3C//DTD SVG 1.1//EN" "http://www.w3.org/Graphics/SVG/1.1/DTD/svg11.dtd">
<svg version="1.1" id="Layer_2" xmlns="http://www.w3.org/2000/svg" xmlns:xlink="http://www.w3.org/1999/xlink" x="0px" y="0px"
	 width="132px" height="62px" viewBox="0 0 132 62" enable-background="new 0 0 132 62" xml:space="preserve">
<g>
	<path fill="#9A9EA2" d="M10.426,29.98l-1.059,1.021L6.51,30.35c-0.018,0.017-0.035,0.034-0.053,0.051l-1.324,1.275l1.701,1.765
		l-0.882,0.851L0,28.116l2.206-2.126c1.218-1.173,3.158-1.138,4.332,0.08c0.842,0.874,1.062,2.107,0.669,3.184L10.426,29.98z
		 M4.283,30.794l1.324-1.275c0.732-0.706,0.754-1.866,0.048-2.599c-0.706-0.732-1.867-0.754-2.6-0.049l-1.323,1.276L4.283,30.794z"
		/>
	<path fill="#9A9EA2" d="M11.252,19.989l1.973,2.732l2.981-2.151l0.717,0.994l-2.981,2.151l0.896,1.242l3.975-2.869l0.717,0.994
		l-4.969,3.586l-5.02-6.956l4.968-3.586l0.717,0.993L11.252,19.989z"/>
	<path fill="#9A9EA2" d="M26.097,9.612l0.57,1.084l-2.71,1.428l3.425,6.505l-1.084,0.57l-3.425-6.504l-2.71,1.427l-0.571-1.084
		L26.097,9.612z"/>
	<path fill="#9A9EA2" d="M37.812,14.217c-1.918,0.678-4.014-0.324-4.69-2.241l-1.633-4.622l1.155-0.408l1.633,4.622
		c0.454,1.282,1.845,1.947,3.127,1.494c1.271-0.449,1.948-1.845,1.495-3.128l-1.633-4.621l1.156-0.408l1.633,4.621
		C40.731,11.444,39.73,13.54,37.812,14.217z"/>
	<path fill="#9A9EA2" d="M52.677,10.486l-1.443,0.285l-2.049-2.095c-0.024,0.005-0.048,0.01-0.072,0.015l-1.803,0.355l0.474,2.404
		l-1.203,0.237l-1.66-8.415l3.006-0.593c1.658-0.327,3.271,0.754,3.598,2.413c0.234,1.19-0.249,2.347-1.162,3.04L52.677,10.486z
		 M47.073,7.844l1.803-0.355c0.998-0.197,1.645-1.161,1.448-2.159c-0.197-0.998-1.161-1.644-2.16-1.447l-1.803,0.356L47.073,7.844z"
		/>
	<path fill="#9A9EA2" d="M64.878,1l0.4,8.57l-0.074,0.003l-6.317-5.496l0.27,5.778l-1.225,0.057l-0.4-8.569l0.062-0.003l6.329,5.496
		l-0.269-5.779L64.878,1z"/>
	<path fill="#9A9EA2" d="M85.432,3.36l-0.221,1.205l-3.015-0.552l-1.324,7.231l-1.206-0.221l1.326-7.232L77.979,3.24L78.2,2.034
		L85.432,3.36z"/>
	<path fill="#9A9EA2" d="M90.894,13.914c-2.248-0.734-3.48-3.159-2.746-5.408c0.733-2.247,3.159-3.479,5.406-2.746
		c2.248,0.734,3.48,3.159,2.746,5.407C95.566,13.416,93.141,14.646,90.894,13.914z M89.312,8.886
		c-0.524,1.606,0.354,3.337,1.962,3.862c1.607,0.524,3.338-0.354,3.862-1.962s-0.354-3.338-1.962-3.862S89.836,7.279,89.312,8.886z"
		/>
	<path fill="#9A9EA2" d="M114.887,16.028l-0.626,1.054l-2.635-1.563l-3.753,6.323l-1.054-0.626l3.753-6.323l-2.635-1.563
		l0.625-1.054L114.887,16.028z"/>
	<path fill="#9A9EA2" d="M116.358,27.812c-1.856-1.465-2.177-4.165-0.714-6.022c1.465-1.857,4.166-2.177,6.022-0.713
		c1.857,1.463,2.177,4.165,0.713,6.022C120.917,28.956,118.215,29.276,116.358,27.812z M116.607,22.548
		c-1.047,1.328-0.819,3.255,0.509,4.302c1.328,1.046,3.255,0.817,4.302-0.51s0.818-3.256-0.509-4.302
		C119.58,20.992,117.654,21.22,116.607,22.548z"/>
	<path fill="#9A9EA2" d="M130.319,28.94c1.189,1.201,1.182,3.143-0.02,4.333c-1.201,1.189-3.142,1.181-4.332-0.021l-1.293-1.306
		l-1.74,1.725l-0.863-0.87l6.092-6.036L130.319,28.94z M126.838,32.39c0.717,0.722,1.877,0.728,2.6,0.012
		c0.722-0.716,0.728-1.877,0.012-2.599l-1.294-1.306l-2.61,2.587L126.838,32.39z"/>
</g>
<g>
	
		<text transform="matrix(0 -1 1 0 42.2651 63.377)" fill="#999DA2" font-family="'Frontage-Shadow'" font-size="36" letter-spacing="-2">&gt;</text>
	
		<text transform="matrix(0 -1 1 0 42.2651 63.377)" fill="#231F20" font-family="'Frontage-3D'" font-size="36" letter-spacing="-2">&gt;</text>
	
		<text transform="matrix(0 -1 1 0 42.2651 63.377)" fill="#F1EBE6" font-family="'Frontage-Bold'" font-size="36" letter-spacing="-2">&gt;</text>
	
		<text transform="matrix(0 -1 1 0 42.2651 63.377)" fill="#C2C2E1" font-family="'Frontage-Regular'" font-size="36" letter-spacing="-2">&gt;</text>
	
		<text transform="matrix(0 -1 1 0 42.2651 63.377)" fill="#F1EBE6" font-family="'Frontage-Bulb'" font-size="36" letter-spacing="-2">&gt;</text>
</g>
<g>
	
		<text transform="matrix(0 -1 1 0 106.8203 63.377)" fill="#999DA2" font-family="'Frontage-Shadow'" font-size="36" letter-spacing="-2">&gt;</text>
	
		<text transform="matrix(0 -1 1 0 106.8203 63.377)" fill="#231F20" font-family="'Frontage-3D'" font-size="36" letter-spacing="-2">&gt;</text>
	
		<text transform="matrix(0 -1 1 0 106.8203 63.377)" fill="#F1EBE6" font-family="'Frontage-Bold'" font-size="36" letter-spacing="-2">&gt;</text>
	
		<text transform="matrix(0 -1 1 0 106.8203 63.377)" fill="#C2C2E1" font-family="'Frontage-Regular'" font-size="36" letter-spacing="-2">&gt;</text>
	
		<text transform="matrix(0 -1 1 0 106.8203 63.377)" fill="#F1EBE6" font-family="'Frontage-Bulb'" font-size="36" letter-spacing="-2">&gt;</text>
</g>
</svg>
